
<global>
amp_veltrack=0
ampeg_attack=0.001
ampeg_release=1.5
</global>

<group>
group_label=RR1
seq_length=4
seq_position=1

<region>
hivel=123
key=G3
lovel=57
offset=4910
sample=Tenors_Line_Drum_1_HotRods_Hit_F_D4_RR1.opus
xf_velcurve=gain
xfin_hivel=77
xfin_lovel=57
xfout_hivel=123
xfout_lovel=103
</region>

<region>
hivel=127
key=G3
lovel=83
offset=601
sample=Tenors_Line_Drum_1_HotRods_Hit_FF_D4_RR1.opus
xf_velcurve=gain
xfin_hivel=103
xfin_lovel=83
</region>

<region>
hivel=97
key=G3
lovel=31
offset=5132
sample=Tenors_Line_Drum_1_HotRods_Hit_MF_D4_RR1.opus
xf_velcurve=gain
xfin_hivel=51
xfin_lovel=31
xfout_hivel=97
xfout_lovel=77
</region>

<region>
hivel=71
key=G3
lovel=5
offset=4548
sample=Tenors_Line_Drum_1_HotRods_Hit_MP_D4_RR1.opus
xf_velcurve=gain
xfin_hivel=25
xfin_lovel=5
xfout_hivel=71
xfout_lovel=51
</region>

<region>
hivel=45
key=G3
lovel=0
offset=5901
sample=Tenors_Line_Drum_1_HotRods_Hit_P_D4_RR1.opus
xf_velcurve=gain
xfout_hivel=45
xfout_lovel=25
</region>

<region>
hivel=123
key=F#3
lovel=57
offset=3805
sample=Tenors_Line_Drum_2_HotRods_Hit_F_D4_RR1.opus
xf_velcurve=gain
xfin_hivel=77
xfin_lovel=57
xfout_hivel=123
xfout_lovel=103
</region>

<region>
hivel=127
key=F#3
lovel=83
offset=2447
sample=Tenors_Line_Drum_2_HotRods_Hit_FF_D4_RR1.opus
xf_velcurve=gain
xfin_hivel=103
xfin_lovel=83
</region>

<region>
hivel=97
key=F#3
lovel=31
offset=3420
sample=Tenors_Line_Drum_2_HotRods_Hit_MF_D4_RR1.opus
xf_velcurve=gain
xfin_hivel=51
xfin_lovel=31
xfout_hivel=97
xfout_lovel=77
</region>

<region>
hivel=71
key=F#3
lovel=5
offset=3725
sample=Tenors_Line_Drum_2_HotRods_Hit_MP_D4_RR1.opus
xf_velcurve=gain
xfin_hivel=25
xfin_lovel=5
xfout_hivel=71
xfout_lovel=51
</region>

<region>
hivel=45
key=F#3
lovel=0
offset=3840
sample=Tenors_Line_Drum_2_HotRods_Hit_P_D4_RR1.opus
xf_velcurve=gain
xfout_hivel=45
xfout_lovel=25
</region>

<region>
hivel=123
key=F3
lovel=57
offset=626
sample=Tenors_Line_Drum_3_HotRods_Hit_F_D4_RR1.opus
xf_velcurve=gain
xfin_hivel=77
xfin_lovel=57
xfout_hivel=123
xfout_lovel=103
</region>

<region>
hivel=127
key=F3
lovel=83
offset=1546
sample=Tenors_Line_Drum_3_HotRods_Hit_FF_D4_RR1.opus
xf_velcurve=gain
xfin_hivel=103
xfin_lovel=83
</region>

<region>
hivel=97
key=F3
lovel=31
offset=4350
sample=Tenors_Line_Drum_3_HotRods_Hit_MF_D4_RR1.opus
xf_velcurve=gain
xfin_hivel=51
xfin_lovel=31
xfout_hivel=97
xfout_lovel=77
</region>

<region>
hivel=71
key=F3
lovel=5
offset=3860
sample=Tenors_Line_Drum_3_HotRods_Hit_MP_D4_RR1.opus
xf_velcurve=gain
xfin_hivel=25
xfin_lovel=5
xfout_hivel=71
xfout_lovel=51
</region>

<region>
hivel=45
key=F3
lovel=0
offset=5102
sample=Tenors_Line_Drum_3_HotRods_Hit_P_D4_RR1.opus
xf_velcurve=gain
xfout_hivel=45
xfout_lovel=25
</region>

<region>
hivel=123
key=E3
lovel=57
offset=710
sample=Tenors_Line_Drum_4_HotRods_Hit_F_D4_RR1.opus
xf_velcurve=gain
xfin_hivel=77
xfin_lovel=57
xfout_hivel=123
xfout_lovel=103
</region>

<region>
hivel=127
key=E3
lovel=83
offset=597
sample=Tenors_Line_Drum_4_HotRods_Hit_FF_D4_RR1.opus
xf_velcurve=gain
xfin_hivel=103
xfin_lovel=83
</region>

<region>
hivel=97
key=E3
lovel=31
offset=5653
sample=Tenors_Line_Drum_4_HotRods_Hit_MF_D4_RR1.opus
xf_velcurve=gain
xfin_hivel=51
xfin_lovel=31
xfout_hivel=97
xfout_lovel=77
</region>

<region>
hivel=71
key=E3
lovel=5
offset=4437
sample=Tenors_Line_Drum_4_HotRods_Hit_MP_D4_RR1.opus
xf_velcurve=gain
xfin_hivel=25
xfin_lovel=5
xfout_hivel=71
xfout_lovel=51
</region>

<region>
hivel=45
key=E3
lovel=0
offset=4332
sample=Tenors_Line_Drum_4_HotRods_Hit_P_D4_RR1.opus
xf_velcurve=gain
xfout_hivel=45
xfout_lovel=25
</region>

<region>
hivel=123
key=D#3
lovel=57
offset=1530
sample=Tenors_Line_Drum_5_HotRods_Hit_F_D4_RR1.opus
xf_velcurve=gain
xfin_hivel=77
xfin_lovel=57
xfout_hivel=123
xfout_lovel=103
</region>

<region>
hivel=127
key=D#3
lovel=83
offset=2043
sample=Tenors_Line_Drum_5_HotRods_Hit_FF_D4_RR1.opus
xf_velcurve=gain
xfin_hivel=103
xfin_lovel=83
</region>

<region>
hivel=97
key=D#3
lovel=31
offset=4942
sample=Tenors_Line_Drum_5_HotRods_Hit_MF_D4_RR1.opus
xf_velcurve=gain
xfin_hivel=51
xfin_lovel=31
xfout_hivel=97
xfout_lovel=77
</region>

<region>
hivel=71
key=D#3
lovel=5
offset=4361
sample=Tenors_Line_Drum_5_HotRods_Hit_MP_D4_RR1.opus
xf_velcurve=gain
xfin_hivel=25
xfin_lovel=5
xfout_hivel=71
xfout_lovel=51
</region>

<region>
hivel=45
key=D#3
lovel=0
offset=4551
sample=Tenors_Line_Drum_5_HotRods_Hit_P_D4_RR1.opus
xf_velcurve=gain
xfout_hivel=45
xfout_lovel=25
</region>

<region>
hivel=123
key=D3
lovel=57
offset=739
sample=Tenors_Line_Drum_6_HotRods_Hit_F_D4_RR1.opus
xf_velcurve=gain
xfin_hivel=77
xfin_lovel=57
xfout_hivel=123
xfout_lovel=103
</region>

<region>
hivel=127
key=D3
lovel=83
offset=735
sample=Tenors_Line_Drum_6_HotRods_Hit_FF_D4_RR1.opus
xf_velcurve=gain
xfin_hivel=103
xfin_lovel=83
</region>

<region>
hivel=97
key=D3
lovel=31
offset=4286
sample=Tenors_Line_Drum_6_HotRods_Hit_MF_D4_RR1.opus
xf_velcurve=gain
xfin_hivel=51
xfin_lovel=31
xfout_hivel=97
xfout_lovel=77
</region>

<region>
hivel=71
key=D3
lovel=5
offset=4543
sample=Tenors_Line_Drum_6_HotRods_Hit_MP_D4_RR1.opus
xf_velcurve=gain
xfin_hivel=25
xfin_lovel=5
xfout_hivel=71
xfout_lovel=51
</region>

<region>
hivel=45
key=D3
lovel=0
offset=4418
sample=Tenors_Line_Drum_6_HotRods_Hit_P_D4_RR1.opus
xf_velcurve=gain
xfout_hivel=45
xfout_lovel=25
</region>
</group>

<group>
group_label=RR3
seq_length=4
seq_position=2

<region>
hivel=123
key=G3
lovel=57
offset=5373
sample=Tenors_Line_Drum_1_HotRods_Hit_F_D4_RR3.opus
xf_velcurve=gain
xfin_hivel=77
xfin_lovel=57
xfout_hivel=123
xfout_lovel=103
</region>

<region>
hivel=127
key=G3
lovel=83
offset=696
sample=Tenors_Line_Drum_1_HotRods_Hit_FF_D4_RR3.opus
xf_velcurve=gain
xfin_hivel=103
xfin_lovel=83
</region>

<region>
hivel=97
key=G3
lovel=31
offset=5918
sample=Tenors_Line_Drum_1_HotRods_Hit_MF_D4_RR3.opus
xf_velcurve=gain
xfin_hivel=51
xfin_lovel=31
xfout_hivel=97
xfout_lovel=77
</region>

<region>
hivel=71
key=G3
lovel=5
offset=4985
sample=Tenors_Line_Drum_1_HotRods_Hit_MP_D4_RR3.opus
xf_velcurve=gain
xfin_hivel=25
xfin_lovel=5
xfout_hivel=71
xfout_lovel=51
</region>

<region>
hivel=45
key=G3
lovel=0
offset=4413
sample=Tenors_Line_Drum_1_HotRods_Hit_P_D4_RR3.opus
xf_velcurve=gain
xfout_hivel=45
xfout_lovel=25
</region>

<region>
hivel=123
key=F#3
lovel=57
offset=4415
sample=Tenors_Line_Drum_2_HotRods_Hit_F_D4_RR3.opus
xf_velcurve=gain
xfin_hivel=77
xfin_lovel=57
xfout_hivel=123
xfout_lovel=103
</region>

<region>
hivel=127
key=F#3
lovel=83
offset=599
sample=Tenors_Line_Drum_2_HotRods_Hit_FF_D4_RR3.opus
xf_velcurve=gain
xfin_hivel=103
xfin_lovel=83
</region>

<region>
hivel=97
key=F#3
lovel=31
offset=4311
sample=Tenors_Line_Drum_2_HotRods_Hit_MF_D4_RR3.opus
xf_velcurve=gain
xfin_hivel=51
xfin_lovel=31
xfout_hivel=97
xfout_lovel=77
</region>

<region>
hivel=71
key=F#3
lovel=5
offset=2906
sample=Tenors_Line_Drum_2_HotRods_Hit_MP_D4_RR3.opus
xf_velcurve=gain
xfin_hivel=25
xfin_lovel=5
xfout_hivel=71
xfout_lovel=51
</region>

<region>
hivel=45
key=F#3
lovel=0
offset=4998
sample=Tenors_Line_Drum_2_HotRods_Hit_P_D4_RR3.opus
xf_velcurve=gain
xfout_hivel=45
xfout_lovel=25
</region>

<region>
hivel=123
key=F3
lovel=57
offset=1395
sample=Tenors_Line_Drum_3_HotRods_Hit_F_D4_RR3.opus
xf_velcurve=gain
xfin_hivel=77
xfin_lovel=57
xfout_hivel=123
xfout_lovel=103
</region>

<region>
hivel=127
key=F3
lovel=83
offset=1583
sample=Tenors_Line_Drum_3_HotRods_Hit_FF_D4_RR3.opus
xf_velcurve=gain
xfin_hivel=103
xfin_lovel=83
</region>

<region>
hivel=97
key=F3
lovel=31
offset=3459
sample=Tenors_Line_Drum_3_HotRods_Hit_MF_D4_RR3.opus
xf_velcurve=gain
xfin_hivel=51
xfin_lovel=31
xfout_hivel=97
xfout_lovel=77
</region>

<region>
hivel=71
key=F3
lovel=5
offset=3411
sample=Tenors_Line_Drum_3_HotRods_Hit_MP_D4_RR3.opus
xf_velcurve=gain
xfin_hivel=25
xfin_lovel=5
xfout_hivel=71
xfout_lovel=51
</region>

<region>
hivel=45
key=F3
lovel=0
offset=5357
sample=Tenors_Line_Drum_3_HotRods_Hit_P_D4_RR3.opus
xf_velcurve=gain
xfout_hivel=45
xfout_lovel=25
</region>

<region>
hivel=123
key=E3
lovel=57
offset=717
sample=Tenors_Line_Drum_4_HotRods_Hit_F_D4_RR3.opus
xf_velcurve=gain
xfin_hivel=77
xfin_lovel=57
xfout_hivel=123
xfout_lovel=103
</region>

<region>
hivel=127
key=E3
lovel=83
offset=705
sample=Tenors_Line_Drum_4_HotRods_Hit_FF_D4_RR3.opus
xf_velcurve=gain
xfin_hivel=103
xfin_lovel=83
</region>

<region>
hivel=97
key=E3
lovel=31
offset=6001
sample=Tenors_Line_Drum_4_HotRods_Hit_MF_D4_RR3.opus
xf_velcurve=gain
xfin_hivel=51
xfin_lovel=31
xfout_hivel=97
xfout_lovel=77
</region>

<region>
hivel=71
key=E3
lovel=5
offset=4610
sample=Tenors_Line_Drum_4_HotRods_Hit_MP_D4_RR3.opus
xf_velcurve=gain
xfin_hivel=25
xfin_lovel=5
xfout_hivel=71
xfout_lovel=51
</region>

<region>
hivel=45
key=E3
lovel=0
offset=4738
sample=Tenors_Line_Drum_4_HotRods_Hit_P_D4_RR3.opus
xf_velcurve=gain
xfout_hivel=45
xfout_lovel=25
</region>

<region>
hivel=123
key=D#3
lovel=57
offset=5089
sample=Tenors_Line_Drum_5_HotRods_Hit_F_D4_RR3.opus
xf_velcurve=gain
xfin_hivel=77
xfin_lovel=57
xfout_hivel=123
xfout_lovel=103
</region>

<region>
hivel=127
key=D#3
lovel=83
offset=740
sample=Tenors_Line_Drum_5_HotRods_Hit_FF_D4_RR3.opus
xf_velcurve=gain
xfin_hivel=103
xfin_lovel=83
</region>

<region>
hivel=97
key=D#3
lovel=31
offset=5776
sample=Tenors_Line_Drum_5_HotRods_Hit_MF_D4_RR3.opus
xf_velcurve=gain
xfin_hivel=51
xfin_lovel=31
xfout_hivel=97
xfout_lovel=77
</region>

<region>
hivel=71
key=D#3
lovel=5
offset=5395
sample=Tenors_Line_Drum_5_HotRods_Hit_MP_D4_RR3.opus
xf_velcurve=gain
xfin_hivel=25
xfin_lovel=5
xfout_hivel=71
xfout_lovel=51
</region>

<region>
hivel=45
key=D#3
lovel=0
offset=5318
sample=Tenors_Line_Drum_5_HotRods_Hit_P_D4_RR3.opus
xf_velcurve=gain
xfout_hivel=45
xfout_lovel=25
</region>

<region>
hivel=123
key=D3
lovel=57
offset=698
sample=Tenors_Line_Drum_6_HotRods_Hit_F_D4_RR3.opus
xf_velcurve=gain
xfin_hivel=77
xfin_lovel=57
xfout_hivel=123
xfout_lovel=103
</region>

<region>
hivel=127
key=D3
lovel=83
offset=738
sample=Tenors_Line_Drum_6_HotRods_Hit_FF_D4_RR3.opus
xf_velcurve=gain
xfin_hivel=103
xfin_lovel=83
</region>

<region>
hivel=97
key=D3
lovel=31
offset=4430
sample=Tenors_Line_Drum_6_HotRods_Hit_MF_D4_RR3.opus
xf_velcurve=gain
xfin_hivel=51
xfin_lovel=31
xfout_hivel=97
xfout_lovel=77
</region>

<region>
hivel=71
key=D3
lovel=5
offset=4490
sample=Tenors_Line_Drum_6_HotRods_Hit_MP_D4_RR3.opus
xf_velcurve=gain
xfin_hivel=25
xfin_lovel=5
xfout_hivel=71
xfout_lovel=51
</region>

<region>
hivel=45
key=D3
lovel=0
offset=5123
sample=Tenors_Line_Drum_6_HotRods_Hit_P_D4_RR3.opus
xf_velcurve=gain
xfout_hivel=45
xfout_lovel=25
</region>
</group>

<group>
group_label=RR5
seq_length=4
seq_position=3

<region>
hivel=123
key=G3
lovel=57
offset=6279
sample=Tenors_Line_Drum_1_HotRods_Hit_F_D4_RR5.opus
xf_velcurve=gain
xfin_hivel=77
xfin_lovel=57
xfout_hivel=123
xfout_lovel=103
</region>

<region>
hivel=127
key=G3
lovel=83
offset=3450
sample=Tenors_Line_Drum_1_HotRods_Hit_FF_D4_RR5.opus
xf_velcurve=gain
xfin_hivel=103
xfin_lovel=83
</region>

<region>
hivel=97
key=G3
lovel=31
offset=5890
sample=Tenors_Line_Drum_1_HotRods_Hit_MF_D4_RR5.opus
xf_velcurve=gain
xfin_hivel=51
xfin_lovel=31
xfout_hivel=97
xfout_lovel=77
</region>

<region>
hivel=71
key=G3
lovel=5
offset=5336
sample=Tenors_Line_Drum_1_HotRods_Hit_MP_D4_RR5.opus
xf_velcurve=gain
xfin_hivel=25
xfin_lovel=5
xfout_hivel=71
xfout_lovel=51
</region>

<region>
hivel=45
key=G3
lovel=0
offset=4599
sample=Tenors_Line_Drum_1_HotRods_Hit_P_D4_RR5.opus
xf_velcurve=gain
xfout_hivel=45
xfout_lovel=25
</region>

<region>
hivel=123
key=F#3
lovel=57
offset=1061
sample=Tenors_Line_Drum_2_HotRods_Hit_F_D4_RR5.opus
xf_velcurve=gain
xfin_hivel=77
xfin_lovel=57
xfout_hivel=123
xfout_lovel=103
</region>

<region>
hivel=127
key=F#3
lovel=83
offset=1536
sample=Tenors_Line_Drum_2_HotRods_Hit_FF_D4_RR5.opus
xf_velcurve=gain
xfin_hivel=103
xfin_lovel=83
</region>

<region>
hivel=97
key=F#3
lovel=31
offset=4370
sample=Tenors_Line_Drum_2_HotRods_Hit_MF_D4_RR5.opus
xf_velcurve=gain
xfin_hivel=51
xfin_lovel=31
xfout_hivel=97
xfout_lovel=77
</region>

<region>
hivel=71
key=F#3
lovel=5
offset=3273
sample=Tenors_Line_Drum_2_HotRods_Hit_MP_D4_RR5.opus
xf_velcurve=gain
xfin_hivel=25
xfin_lovel=5
xfout_hivel=71
xfout_lovel=51
</region>

<region>
hivel=45
key=F#3
lovel=0
offset=4414
sample=Tenors_Line_Drum_2_HotRods_Hit_P_D4_RR5.opus
xf_velcurve=gain
xfout_hivel=45
xfout_lovel=25
</region>

<region>
hivel=123
key=F3
lovel=57
offset=707
sample=Tenors_Line_Drum_3_HotRods_Hit_F_D4_RR5.opus
xf_velcurve=gain
xfin_hivel=77
xfin_lovel=57
xfout_hivel=123
xfout_lovel=103
</region>

<region>
hivel=127
key=F3
lovel=83
offset=717
sample=Tenors_Line_Drum_3_HotRods_Hit_FF_D4_RR5.opus
xf_velcurve=gain
xfin_hivel=103
xfin_lovel=83
</region>

<region>
hivel=97
key=F3
lovel=31
offset=4413
sample=Tenors_Line_Drum_3_HotRods_Hit_MF_D4_RR5.opus
xf_velcurve=gain
xfin_hivel=51
xfin_lovel=31
xfout_hivel=97
xfout_lovel=77
</region>

<region>
hivel=71
key=F3
lovel=5
offset=4369
sample=Tenors_Line_Drum_3_HotRods_Hit_MP_D4_RR5.opus
xf_velcurve=gain
xfin_hivel=25
xfin_lovel=5
xfout_hivel=71
xfout_lovel=51
</region>

<region>
hivel=45
key=F3
lovel=0
offset=6529
sample=Tenors_Line_Drum_3_HotRods_Hit_P_D4_RR5.opus
xf_velcurve=gain
xfout_hivel=45
xfout_lovel=25
</region>

<region>
hivel=123
key=E3
lovel=57
offset=706
sample=Tenors_Line_Drum_4_HotRods_Hit_F_D4_RR5.opus
xf_velcurve=gain
xfin_hivel=77
xfin_lovel=57
xfout_hivel=123
xfout_lovel=103
</region>

<region>
hivel=127
key=E3
lovel=83
offset=1193
sample=Tenors_Line_Drum_4_HotRods_Hit_FF_D4_RR5.opus
xf_velcurve=gain
xfin_hivel=103
xfin_lovel=83
</region>

<region>
hivel=97
key=E3
lovel=31
offset=5662
sample=Tenors_Line_Drum_4_HotRods_Hit_MF_D4_RR5.opus
xf_velcurve=gain
xfin_hivel=51
xfin_lovel=31
xfout_hivel=97
xfout_lovel=77
</region>

<region>
hivel=71
key=E3
lovel=5
offset=5311
sample=Tenors_Line_Drum_4_HotRods_Hit_MP_D4_RR5.opus
xf_velcurve=gain
xfin_hivel=25
xfin_lovel=5
xfout_hivel=71
xfout_lovel=51
</region>

<region>
hivel=45
key=E3
lovel=0
offset=4471
sample=Tenors_Line_Drum_4_HotRods_Hit_P_D4_RR5.opus
xf_velcurve=gain
xfout_hivel=45
xfout_lovel=25
</region>

<region>
hivel=123
key=D#3
lovel=57
offset=6828
sample=Tenors_Line_Drum_5_HotRods_Hit_F_D4_RR5.opus
xf_velcurve=gain
xfin_hivel=77
xfin_lovel=57
xfout_hivel=123
xfout_lovel=103
</region>

<region>
hivel=127
key=D#3
lovel=83
offset=723
sample=Tenors_Line_Drum_5_HotRods_Hit_FF_D4_RR5.opus
xf_velcurve=gain
xfin_hivel=103
xfin_lovel=83
</region>

<region>
hivel=97
key=D#3
lovel=31
offset=5636
sample=Tenors_Line_Drum_5_HotRods_Hit_MF_D4_RR5.opus
xf_velcurve=gain
xfin_hivel=51
xfin_lovel=31
xfout_hivel=97
xfout_lovel=77
</region>

<region>
hivel=71
key=D#3
lovel=5
offset=5175
sample=Tenors_Line_Drum_5_HotRods_Hit_MP_D4_RR5.opus
xf_velcurve=gain
xfin_hivel=25
xfin_lovel=5
xfout_hivel=71
xfout_lovel=51
</region>

<region>
hivel=45
key=D#3
lovel=0
offset=4897
sample=Tenors_Line_Drum_5_HotRods_Hit_P_D4_RR5.opus
xf_velcurve=gain
xfout_hivel=45
xfout_lovel=25
</region>

<region>
hivel=123
key=D3
lovel=57
offset=3990
sample=Tenors_Line_Drum_6_HotRods_Hit_F_D4_RR5.opus
xf_velcurve=gain
xfin_hivel=77
xfin_lovel=57
xfout_hivel=123
xfout_lovel=103
</region>

<region>
hivel=127
key=D3
lovel=83
offset=629
sample=Tenors_Line_Drum_6_HotRods_Hit_FF_D4_RR5.opus
xf_velcurve=gain
xfin_hivel=103
xfin_lovel=83
</region>

<region>
hivel=97
key=D3
lovel=31
offset=5537
sample=Tenors_Line_Drum_6_HotRods_Hit_MF_D4_RR5.opus
xf_velcurve=gain
xfin_hivel=51
xfin_lovel=31
xfout_hivel=97
xfout_lovel=77
</region>

<region>
hivel=71
key=D3
lovel=5
offset=4430
sample=Tenors_Line_Drum_6_HotRods_Hit_MP_D4_RR5.opus
xf_velcurve=gain
xfin_hivel=25
xfin_lovel=5
xfout_hivel=71
xfout_lovel=51
</region>

<region>
hivel=45
key=D3
lovel=0
offset=5945
sample=Tenors_Line_Drum_6_HotRods_Hit_P_D4_RR5.opus
xf_velcurve=gain
xfout_hivel=45
xfout_lovel=25
</region>
</group>

<group>
group_label=RR7
seq_length=4
seq_position=4

<region>
hivel=123
key=G3
lovel=57
offset=4657
sample=Tenors_Line_Drum_1_HotRods_Hit_F_D4_RR7.opus
xf_velcurve=gain
xfin_hivel=77
xfin_lovel=57
xfout_hivel=123
xfout_lovel=103
</region>

<region>
hivel=127
key=G3
lovel=83
offset=1537
sample=Tenors_Line_Drum_1_HotRods_Hit_FF_D4_RR7.opus
xf_velcurve=gain
xfin_hivel=103
xfin_lovel=83
</region>

<region>
hivel=97
key=G3
lovel=31
offset=6808
sample=Tenors_Line_Drum_1_HotRods_Hit_MF_D4_RR7.opus
xf_velcurve=gain
xfin_hivel=51
xfin_lovel=31
xfout_hivel=97
xfout_lovel=77
</region>

<region>
hivel=71
key=G3
lovel=5
offset=5152
sample=Tenors_Line_Drum_1_HotRods_Hit_MP_D4_RR7.opus
xf_velcurve=gain
xfin_hivel=25
xfin_lovel=5
xfout_hivel=71
xfout_lovel=51
</region>

<region>
hivel=45
key=G3
lovel=0
offset=5096
sample=Tenors_Line_Drum_1_HotRods_Hit_P_D4_RR7.opus
xf_velcurve=gain
xfout_hivel=45
xfout_lovel=25
</region>

<region>
hivel=123
key=F#3
lovel=57
offset=4395
sample=Tenors_Line_Drum_2_HotRods_Hit_F_D4_RR7.opus
xf_velcurve=gain
xfin_hivel=77
xfin_lovel=57
xfout_hivel=123
xfout_lovel=103
</region>

<region>
hivel=127
key=F#3
lovel=83
offset=580
sample=Tenors_Line_Drum_2_HotRods_Hit_FF_D4_RR7.opus
xf_velcurve=gain
xfin_hivel=103
xfin_lovel=83
</region>

<region>
hivel=97
key=F#3
lovel=31
offset=4676
sample=Tenors_Line_Drum_2_HotRods_Hit_MF_D4_RR7.opus
xf_velcurve=gain
xfin_hivel=51
xfin_lovel=31
xfout_hivel=97
xfout_lovel=77
</region>

<region>
hivel=71
key=F#3
lovel=5
offset=3749
sample=Tenors_Line_Drum_2_HotRods_Hit_MP_D4_RR7.opus
xf_velcurve=gain
xfin_hivel=25
xfin_lovel=5
xfout_hivel=71
xfout_lovel=51
</region>

<region>
hivel=45
key=F#3
lovel=0
offset=4408
sample=Tenors_Line_Drum_2_HotRods_Hit_P_D4_RR7.opus
xf_velcurve=gain
xfout_hivel=45
xfout_lovel=25
</region>

<region>
hivel=123
key=F3
lovel=57
offset=1781
sample=Tenors_Line_Drum_3_HotRods_Hit_F_D4_RR7.opus
xf_velcurve=gain
xfin_hivel=77
xfin_lovel=57
xfout_hivel=123
xfout_lovel=103
</region>

<region>
hivel=127
key=F3
lovel=83
offset=718
sample=Tenors_Line_Drum_3_HotRods_Hit_FF_D4_RR7.opus
xf_velcurve=gain
xfin_hivel=103
xfin_lovel=83
</region>

<region>
hivel=97
key=F3
lovel=31
offset=4794
sample=Tenors_Line_Drum_3_HotRods_Hit_MF_D4_RR7.opus
xf_velcurve=gain
xfin_hivel=51
xfin_lovel=31
xfout_hivel=97
xfout_lovel=77
</region>

<region>
hivel=71
key=F3
lovel=5
offset=4116
sample=Tenors_Line_Drum_3_HotRods_Hit_MP_D4_RR7.opus
xf_velcurve=gain
xfin_hivel=25
xfin_lovel=5
xfout_hivel=71
xfout_lovel=51
</region>

<region>
hivel=45
key=F3
lovel=0
offset=6416
sample=Tenors_Line_Drum_3_HotRods_Hit_P_D4_RR7.opus
xf_velcurve=gain
xfout_hivel=45
xfout_lovel=25
</region>

<region>
hivel=123
key=E3
lovel=57
offset=707
sample=Tenors_Line_Drum_4_HotRods_Hit_F_D4_RR7.opus
xf_velcurve=gain
xfin_hivel=77
xfin_lovel=57
xfout_hivel=123
xfout_lovel=103
</region>

<region>
hivel=127
key=E3
lovel=83
offset=641
sample=Tenors_Line_Drum_4_HotRods_Hit_FF_D4_RR7.opus
xf_velcurve=gain
xfin_hivel=103
xfin_lovel=83
</region>

<region>
hivel=97
key=E3
lovel=31
offset=6351
sample=Tenors_Line_Drum_4_HotRods_Hit_MF_D4_RR7.opus
xf_velcurve=gain
xfin_hivel=51
xfin_lovel=31
xfout_hivel=97
xfout_lovel=77
</region>

<region>
hivel=71
key=E3
lovel=5
offset=4575
sample=Tenors_Line_Drum_4_HotRods_Hit_MP_D4_RR7.opus
xf_velcurve=gain
xfin_hivel=25
xfin_lovel=5
xfout_hivel=71
xfout_lovel=51
</region>

<region>
hivel=45
key=E3
lovel=0
offset=4884
sample=Tenors_Line_Drum_4_HotRods_Hit_P_D4_RR7.opus
xf_velcurve=gain
xfout_hivel=45
xfout_lovel=25
</region>

<region>
hivel=123
key=D#3
lovel=57
offset=705
sample=Tenors_Line_Drum_5_HotRods_Hit_F_D4_RR7.opus
xf_velcurve=gain
xfin_hivel=77
xfin_lovel=57
xfout_hivel=123
xfout_lovel=103
</region>

<region>
hivel=127
key=D#3
lovel=83
offset=728
sample=Tenors_Line_Drum_5_HotRods_Hit_FF_D4_RR7.opus
xf_velcurve=gain
xfin_hivel=103
xfin_lovel=83
</region>

<region>
hivel=97
key=D#3
lovel=31
offset=5761
sample=Tenors_Line_Drum_5_HotRods_Hit_MF_D4_RR7.opus
xf_velcurve=gain
xfin_hivel=51
xfin_lovel=31
xfout_hivel=97
xfout_lovel=77
</region>

<region>
hivel=71
key=D#3
lovel=5
offset=5209
sample=Tenors_Line_Drum_5_HotRods_Hit_MP_D4_RR7.opus
xf_velcurve=gain
xfin_hivel=25
xfin_lovel=5
xfout_hivel=71
xfout_lovel=51
</region>

<region>
hivel=45
key=D#3
lovel=0
offset=4964
sample=Tenors_Line_Drum_5_HotRods_Hit_P_D4_RR7.opus
xf_velcurve=gain
xfout_hivel=45
xfout_lovel=25
</region>

<region>
hivel=123
key=D3
lovel=57
offset=4349
sample=Tenors_Line_Drum_6_HotRods_Hit_F_D4_RR7.opus
xf_velcurve=gain
xfin_hivel=77
xfin_lovel=57
xfout_hivel=123
xfout_lovel=103
</region>

<region>
hivel=127
key=D3
lovel=83
offset=1981
sample=Tenors_Line_Drum_6_HotRods_Hit_FF_D4_RR7.opus
xf_velcurve=gain
xfin_hivel=103
xfin_lovel=83
</region>

<region>
hivel=97
key=D3
lovel=31
offset=5645
sample=Tenors_Line_Drum_6_HotRods_Hit_MF_D4_RR7.opus
xf_velcurve=gain
xfin_hivel=51
xfin_lovel=31
xfout_hivel=97
xfout_lovel=77
</region>

<region>
hivel=71
key=D3
lovel=5
offset=4987
sample=Tenors_Line_Drum_6_HotRods_Hit_MP_D4_RR7.opus
xf_velcurve=gain
xfin_hivel=25
xfin_lovel=5
xfout_hivel=71
xfout_lovel=51
</region>

<region>
hivel=45
key=D3
lovel=0
offset=5752
sample=Tenors_Line_Drum_6_HotRods_Hit_P_D4_RR7.opus
xf_velcurve=gain
xfout_hivel=45
xfout_lovel=25
</region>
</group>

<group>
color=green
group_label=Alt_Hits_RR1
seq_length=2
seq_position=1

<region>
hivel=103
key=G4
lovel=78
offset=5800
sample=Tenors_Line_Drum_1_HotRods_Muted_Hit_F_D4_RR1.opus
</region>

<region>
hivel=127
key=G4
lovel=104
offset=3942
sample=Tenors_Line_Drum_1_HotRods_Muted_Hit_FF_D4_RR1.opus
</region>

<region>
hivel=77
key=G4
lovel=52
offset=6050
sample=Tenors_Line_Drum_1_HotRods_Muted_Hit_MF_D4_RR1.opus
</region>

<region>
hivel=51
key=G4
lovel=26
offset=5767
sample=Tenors_Line_Drum_1_HotRods_Muted_Hit_MP_D4_RR1.opus
</region>

<region>
hivel=25
key=G4
lovel=0
offset=5393
sample=Tenors_Line_Drum_1_HotRods_Muted_Hit_P_D4_RR1.opus
</region>

<region>
hivel=103
key=G5
lovel=78
offset=6480
sample=Tenors_Line_Drum_1_HotRods_Rim_Hit_F_D4_RR1.opus
</region>

<region>
hivel=127
key=G5
lovel=104
offset=4411
sample=Tenors_Line_Drum_1_HotRods_Rim_Hit_FF_D4_RR1.opus
</region>

<region>
hivel=77
key=G5
lovel=52
offset=5569
sample=Tenors_Line_Drum_1_HotRods_Rim_Hit_MF_D4_RR1.opus
</region>

<region>
hivel=51
key=G5
lovel=26
offset=5206
sample=Tenors_Line_Drum_1_HotRods_Rim_Hit_MP_D4_RR1.opus
</region>

<region>
hivel=25
key=G5
lovel=0
offset=4032
sample=Tenors_Line_Drum_1_HotRods_Rim_Hit_P_D4_RR1.opus
</region>

<region>
hivel=103
key=F#4
lovel=78
offset=4423
sample=Tenors_Line_Drum_2_HotRods_Muted_Hit_F_D4_RR1.opus
</region>

<region>
hivel=127
key=F#4
lovel=104
offset=6333
sample=Tenors_Line_Drum_2_HotRods_Muted_Hit_FF_D4_RR1.opus
</region>

<region>
hivel=77
key=F#4
lovel=52
offset=4942
sample=Tenors_Line_Drum_2_HotRods_Muted_Hit_MF_D4_RR1.opus
</region>

<region>
hivel=51
key=F#4
lovel=26
offset=4499
sample=Tenors_Line_Drum_2_HotRods_Muted_Hit_MP_D4_RR1.opus
</region>

<region>
hivel=25
key=F#4
lovel=0
offset=5474
sample=Tenors_Line_Drum_2_HotRods_Muted_Hit_P_D4_RR1.opus
</region>

<region>
hivel=103
key=F#5
lovel=78
offset=4341
sample=Tenors_Line_Drum_2_HotRods_Rim_Hit_F_D4_RR1.opus
</region>

<region>
hivel=127
key=F#5
lovel=104
offset=4822
sample=Tenors_Line_Drum_2_HotRods_Rim_Hit_FF_D4_RR1.opus
</region>

<region>
hivel=77
key=F#5
lovel=52
offset=4387
sample=Tenors_Line_Drum_2_HotRods_Rim_Hit_MF_D4_RR1.opus
</region>

<region>
hivel=51
key=F#5
lovel=26
offset=2735
sample=Tenors_Line_Drum_2_HotRods_Rim_Hit_MP_D4_RR1.opus
</region>

<region>
hivel=25
key=F#5
lovel=0
offset=3845
sample=Tenors_Line_Drum_2_HotRods_Rim_Hit_P_D4_RR1.opus
</region>

<region>
hivel=103
key=F4
lovel=78
offset=708
sample=Tenors_Line_Drum_3_HotRods_Muted_Hit_F_D4_RR1.opus
</region>

<region>
hivel=127
key=F4
lovel=104
offset=577
sample=Tenors_Line_Drum_3_HotRods_Muted_Hit_FF_D4_RR1.opus
</region>

<region>
hivel=77
key=F4
lovel=52
offset=5169
sample=Tenors_Line_Drum_3_HotRods_Muted_Hit_MF_D4_RR1.opus
</region>

<region>
hivel=51
key=F4
lovel=26
offset=3809
sample=Tenors_Line_Drum_3_HotRods_Muted_Hit_MP_D4_RR1.opus
</region>

<region>
hivel=25
key=F4
lovel=0
offset=7073
sample=Tenors_Line_Drum_3_HotRods_Muted_Hit_P_D4_RR1.opus
</region>

<region>
hivel=103
key=F5
lovel=78
offset=4680
sample=Tenors_Line_Drum_3_HotRods_Rim_Hit_F_D4_RR1.opus
</region>

<region>
hivel=127
key=F5
lovel=104
offset=5662
sample=Tenors_Line_Drum_3_HotRods_Rim_Hit_FF_D4_RR1.opus
</region>

<region>
hivel=77
key=F5
lovel=52
offset=4673
sample=Tenors_Line_Drum_3_HotRods_Rim_Hit_MF_D4_RR1.opus
</region>

<region>
hivel=51
key=F5
lovel=26
offset=3030
sample=Tenors_Line_Drum_3_HotRods_Rim_Hit_MP_D4_RR1.opus
</region>

<region>
hivel=25
key=F5
lovel=0
offset=5610
sample=Tenors_Line_Drum_3_HotRods_Rim_Hit_P_D4_RR1.opus
</region>

<region>
hivel=103
key=E4
lovel=78
offset=700
sample=Tenors_Line_Drum_4_HotRods_Muted_Hit_F_D4_RR1.opus
</region>

<region>
hivel=127
key=E4
lovel=104
offset=1442
sample=Tenors_Line_Drum_4_HotRods_Muted_Hit_FF_D4_RR1.opus
</region>

<region>
hivel=77
key=E4
lovel=52
offset=6717
sample=Tenors_Line_Drum_4_HotRods_Muted_Hit_MF_D4_RR1.opus
</region>

<region>
hivel=51
key=E4
lovel=26
offset=5403
sample=Tenors_Line_Drum_4_HotRods_Muted_Hit_MP_D4_RR1.opus
</region>

<region>
hivel=25
key=E4
lovel=0
offset=4826
sample=Tenors_Line_Drum_4_HotRods_Muted_Hit_P_D4_RR1.opus
</region>

<region>
hivel=103
key=E5
lovel=78
offset=5509
sample=Tenors_Line_Drum_4_HotRods_Rim_Hit_F_D4_RR1.opus
</region>

<region>
hivel=127
key=E5
lovel=104
offset=6546
sample=Tenors_Line_Drum_4_HotRods_Rim_Hit_FF_D4_RR1.opus
</region>

<region>
hivel=77
key=E5
lovel=52
offset=5303
sample=Tenors_Line_Drum_4_HotRods_Rim_Hit_MF_D4_RR1.opus
</region>

<region>
hivel=51
key=E5
lovel=26
offset=3750
sample=Tenors_Line_Drum_4_HotRods_Rim_Hit_MP_D4_RR1.opus
</region>

<region>
hivel=25
key=E5
lovel=0
offset=4732
sample=Tenors_Line_Drum_4_HotRods_Rim_Hit_P_D4_RR1.opus
</region>

<region>
hivel=103
key=D#4
lovel=78
offset=7264
sample=Tenors_Line_Drum_5_HotRods_Muted_Hit_F_D4_RR1.opus
</region>

<region>
hivel=127
key=D#4
lovel=104
offset=737
sample=Tenors_Line_Drum_5_HotRods_Muted_Hit_FF_D4_RR1.opus
</region>

<region>
hivel=77
key=D#4
lovel=52
offset=6912
sample=Tenors_Line_Drum_5_HotRods_Muted_Hit_MF_D4_RR1.opus
</region>

<region>
hivel=51
key=D#4
lovel=26
offset=5351
sample=Tenors_Line_Drum_5_HotRods_Muted_Hit_MP_D4_RR1.opus
</region>

<region>
hivel=25
key=D#4
lovel=0
offset=5365
sample=Tenors_Line_Drum_5_HotRods_Muted_Hit_P_D4_RR1.opus
</region>

<region>
hivel=103
key=D#5
lovel=78
offset=5076
sample=Tenors_Line_Drum_5_HotRods_Rim_Hit_F_D4_RR1.opus
</region>

<region>
hivel=127
key=D#5
lovel=104
offset=5639
sample=Tenors_Line_Drum_5_HotRods_Rim_Hit_FF_D4_RR1.opus
</region>

<region>
hivel=77
key=D#5
lovel=52
offset=5378
sample=Tenors_Line_Drum_5_HotRods_Rim_Hit_MF_D4_RR1.opus
</region>

<region>
hivel=51
key=D#5
lovel=26
offset=6105
sample=Tenors_Line_Drum_5_HotRods_Rim_Hit_MP_D4_RR1.opus
</region>

<region>
hivel=25
key=D#5
lovel=0
offset=4965
sample=Tenors_Line_Drum_5_HotRods_Rim_Hit_P_D4_RR1.opus
</region>

<region>
hivel=103
key=D4
lovel=78
offset=737
sample=Tenors_Line_Drum_6_HotRods_Muted_Hit_F_D4_RR1.opus
</region>

<region>
hivel=127
key=D4
lovel=104
offset=650
sample=Tenors_Line_Drum_6_HotRods_Muted_Hit_FF_D4_RR1.opus
</region>

<region>
hivel=77
key=D4
lovel=52
offset=6383
sample=Tenors_Line_Drum_6_HotRods_Muted_Hit_MF_D4_RR1.opus
</region>

<region>
hivel=51
key=D4
lovel=26
offset=5014
sample=Tenors_Line_Drum_6_HotRods_Muted_Hit_MP_D4_RR1.opus
</region>

<region>
hivel=25
key=D4
lovel=0
offset=7087
sample=Tenors_Line_Drum_6_HotRods_Muted_Hit_P_D4_RR1.opus
</region>

<region>
hivel=103
key=D5
lovel=78
offset=3913
sample=Tenors_Line_Drum_6_HotRods_Rim_Hit_F_D4_RR1.opus
</region>

<region>
hivel=127
key=D5
lovel=104
offset=2909
sample=Tenors_Line_Drum_6_HotRods_Rim_Hit_FF_D4_RR1.opus
</region>

<region>
hivel=77
key=D5
lovel=52
offset=5404
sample=Tenors_Line_Drum_6_HotRods_Rim_Hit_MF_D4_RR1.opus
</region>

<region>
hivel=51
key=D5
lovel=26
offset=5226
sample=Tenors_Line_Drum_6_HotRods_Rim_Hit_MP_D4_RR1.opus
</region>

<region>
hivel=25
key=D5
lovel=0
offset=3843
sample=Tenors_Line_Drum_6_HotRods_Rim_Hit_P_D4_RR1.opus
</region>
</group>

<group>
color=green
group_label=Alt_Hits_RR3
seq_length=2
seq_position=2

<region>
hivel=103
key=G4
lovel=78
offset=5483
sample=Tenors_Line_Drum_1_HotRods_Muted_Hit_F_D4_RR3.opus
</region>

<region>
hivel=127
key=G4
lovel=104
offset=3694
sample=Tenors_Line_Drum_1_HotRods_Muted_Hit_FF_D4_RR3.opus
</region>

<region>
hivel=77
key=G4
lovel=52
offset=6519
sample=Tenors_Line_Drum_1_HotRods_Muted_Hit_MF_D4_RR3.opus
</region>

<region>
hivel=51
key=G4
lovel=26
offset=4984
sample=Tenors_Line_Drum_1_HotRods_Muted_Hit_MP_D4_RR3.opus
</region>

<region>
hivel=25
key=G4
lovel=0
offset=5385
sample=Tenors_Line_Drum_1_HotRods_Muted_Hit_P_D4_RR3.opus
</region>

<region>
hivel=103
key=G5
lovel=78
offset=4466
sample=Tenors_Line_Drum_1_HotRods_Rim_Hit_F_D4_RR3.opus
</region>

<region>
hivel=127
key=G5
lovel=104
offset=4463
sample=Tenors_Line_Drum_1_HotRods_Rim_Hit_FF_D4_RR3.opus
</region>

<region>
hivel=77
key=G5
lovel=52
offset=5661
sample=Tenors_Line_Drum_1_HotRods_Rim_Hit_MF_D4_RR3.opus
</region>

<region>
hivel=51
key=G5
lovel=26
offset=5058
sample=Tenors_Line_Drum_1_HotRods_Rim_Hit_MP_D4_RR3.opus
</region>

<region>
hivel=25
key=G5
lovel=0
offset=4711
sample=Tenors_Line_Drum_1_HotRods_Rim_Hit_P_D4_RR3.opus
</region>

<region>
hivel=103
key=F#4
lovel=78
offset=3856
sample=Tenors_Line_Drum_2_HotRods_Muted_Hit_F_D4_RR3.opus
</region>

<region>
hivel=127
key=F#4
lovel=104
offset=2876
sample=Tenors_Line_Drum_2_HotRods_Muted_Hit_FF_D4_RR3.opus
</region>

<region>
hivel=77
key=F#4
lovel=52
offset=3721
sample=Tenors_Line_Drum_2_HotRods_Muted_Hit_MF_D4_RR3.opus
</region>

<region>
hivel=51
key=F#4
lovel=26
offset=3484
sample=Tenors_Line_Drum_2_HotRods_Muted_Hit_MP_D4_RR3.opus
</region>

<region>
hivel=25
key=F#4
lovel=0
offset=5117
sample=Tenors_Line_Drum_2_HotRods_Muted_Hit_P_D4_RR3.opus
</region>

<region>
hivel=103
key=F#5
lovel=78
offset=4936
sample=Tenors_Line_Drum_2_HotRods_Rim_Hit_F_D4_RR3.opus
</region>

<region>
hivel=127
key=F#5
lovel=104
offset=5744
sample=Tenors_Line_Drum_2_HotRods_Rim_Hit_FF_D4_RR3.opus
</region>

<region>
hivel=77
key=F#5
lovel=52
offset=4054
sample=Tenors_Line_Drum_2_HotRods_Rim_Hit_MF_D4_RR3.opus
</region>

<region>
hivel=51
key=F#5
lovel=26
offset=3126
sample=Tenors_Line_Drum_2_HotRods_Rim_Hit_MP_D4_RR3.opus
</region>

<region>
hivel=25
key=F#5
lovel=0
offset=4839
sample=Tenors_Line_Drum_2_HotRods_Rim_Hit_P_D4_RR3.opus
</region>

<region>
hivel=103
key=F4
lovel=78
offset=5458
sample=Tenors_Line_Drum_3_HotRods_Muted_Hit_F_D4_RR3.opus
</region>

<region>
hivel=127
key=F4
lovel=104
offset=644
sample=Tenors_Line_Drum_3_HotRods_Muted_Hit_FF_D4_RR3.opus
</region>

<region>
hivel=77
key=F4
lovel=52
offset=4431
sample=Tenors_Line_Drum_3_HotRods_Muted_Hit_MF_D4_RR3.opus
</region>

<region>
hivel=51
key=F4
lovel=26
offset=3202
sample=Tenors_Line_Drum_3_HotRods_Muted_Hit_MP_D4_RR3.opus
</region>

<region>
hivel=25
key=F4
lovel=0
offset=6138
sample=Tenors_Line_Drum_3_HotRods_Muted_Hit_P_D4_RR3.opus
</region>

<region>
hivel=103
key=F5
lovel=78
offset=5070
sample=Tenors_Line_Drum_3_HotRods_Rim_Hit_F_D4_RR3.opus
</region>

<region>
hivel=127
key=F5
lovel=104
offset=5816
sample=Tenors_Line_Drum_3_HotRods_Rim_Hit_FF_D4_RR3.opus
</region>

<region>
hivel=77
key=F5
lovel=52
offset=4434
sample=Tenors_Line_Drum_3_HotRods_Rim_Hit_MF_D4_RR3.opus
</region>

<region>
hivel=51
key=F5
lovel=26
offset=3465
sample=Tenors_Line_Drum_3_HotRods_Rim_Hit_MP_D4_RR3.opus
</region>

<region>
hivel=25
key=F5
lovel=0
offset=6387
sample=Tenors_Line_Drum_3_HotRods_Rim_Hit_P_D4_RR3.opus
</region>

<region>
hivel=103
key=E4
lovel=78
offset=2021
sample=Tenors_Line_Drum_4_HotRods_Muted_Hit_F_D4_RR3.opus
</region>

<region>
hivel=127
key=E4
lovel=104
offset=5030
sample=Tenors_Line_Drum_4_HotRods_Muted_Hit_FF_D4_RR3.opus
</region>

<region>
hivel=77
key=E4
lovel=52
offset=6328
sample=Tenors_Line_Drum_4_HotRods_Muted_Hit_MF_D4_RR3.opus
</region>

<region>
hivel=51
key=E4
lovel=26
offset=4415
sample=Tenors_Line_Drum_4_HotRods_Muted_Hit_MP_D4_RR3.opus
</region>

<region>
hivel=25
key=E4
lovel=0
offset=4731
sample=Tenors_Line_Drum_4_HotRods_Muted_Hit_P_D4_RR3.opus
</region>

<region>
hivel=103
key=E5
lovel=78
offset=6032
sample=Tenors_Line_Drum_4_HotRods_Rim_Hit_F_D4_RR3.opus
</region>

<region>
hivel=127
key=E5
lovel=104
offset=6095
sample=Tenors_Line_Drum_4_HotRods_Rim_Hit_FF_D4_RR3.opus
</region>

<region>
hivel=77
key=E5
lovel=52
offset=5771
sample=Tenors_Line_Drum_4_HotRods_Rim_Hit_MF_D4_RR3.opus
</region>

<region>
hivel=51
key=E5
lovel=26
offset=4479
sample=Tenors_Line_Drum_4_HotRods_Rim_Hit_MP_D4_RR3.opus
</region>

<region>
hivel=25
key=E5
lovel=0
offset=4484
sample=Tenors_Line_Drum_4_HotRods_Rim_Hit_P_D4_RR3.opus
</region>

<region>
hivel=103
key=D#4
lovel=78
offset=5162
sample=Tenors_Line_Drum_5_HotRods_Muted_Hit_F_D4_RR3.opus
</region>

<region>
hivel=127
key=D#4
lovel=104
offset=705
sample=Tenors_Line_Drum_5_HotRods_Muted_Hit_FF_D4_RR3.opus
</region>

<region>
hivel=77
key=D#4
lovel=52
offset=5630
sample=Tenors_Line_Drum_5_HotRods_Muted_Hit_MF_D4_RR3.opus
</region>

<region>
hivel=51
key=D#4
lovel=26
offset=5645
sample=Tenors_Line_Drum_5_HotRods_Muted_Hit_MP_D4_RR3.opus
</region>

<region>
hivel=25
key=D#4
lovel=0
offset=4491
sample=Tenors_Line_Drum_5_HotRods_Muted_Hit_P_D4_RR3.opus
</region>

<region>
hivel=103
key=D#5
lovel=78
offset=5668
sample=Tenors_Line_Drum_5_HotRods_Rim_Hit_F_D4_RR3.opus
</region>

<region>
hivel=127
key=D#5
lovel=104
offset=6935
sample=Tenors_Line_Drum_5_HotRods_Rim_Hit_FF_D4_RR3.opus
</region>

<region>
hivel=77
key=D#5
lovel=52
offset=5350
sample=Tenors_Line_Drum_5_HotRods_Rim_Hit_MF_D4_RR3.opus
</region>

<region>
hivel=51
key=D#5
lovel=26
offset=6256
sample=Tenors_Line_Drum_5_HotRods_Rim_Hit_MP_D4_RR3.opus
</region>

<region>
hivel=25
key=D#5
lovel=0
offset=5336
sample=Tenors_Line_Drum_5_HotRods_Rim_Hit_P_D4_RR3.opus
</region>

<region>
hivel=103
key=D4
lovel=78
offset=4553
sample=Tenors_Line_Drum_6_HotRods_Muted_Hit_F_D4_RR3.opus
</region>

<region>
hivel=127
key=D4
lovel=104
offset=5233
sample=Tenors_Line_Drum_6_HotRods_Muted_Hit_FF_D4_RR3.opus
</region>

<region>
hivel=77
key=D4
lovel=52
offset=6356
sample=Tenors_Line_Drum_6_HotRods_Muted_Hit_MF_D4_RR3.opus
</region>

<region>
hivel=51
key=D4
lovel=26
offset=4589
sample=Tenors_Line_Drum_6_HotRods_Muted_Hit_MP_D4_RR3.opus
</region>

<region>
hivel=25
key=D4
lovel=0
offset=4062
sample=Tenors_Line_Drum_6_HotRods_Muted_Hit_P_D4_RR3.opus
</region>

<region>
hivel=103
key=D5
lovel=78
offset=4391
sample=Tenors_Line_Drum_6_HotRods_Rim_Hit_F_D4_RR3.opus
</region>

<region>
hivel=127
key=D5
lovel=104
offset=3358
sample=Tenors_Line_Drum_6_HotRods_Rim_Hit_FF_D4_RR3.opus
</region>

<region>
hivel=77
key=D5
lovel=52
offset=5183
sample=Tenors_Line_Drum_6_HotRods_Rim_Hit_MF_D4_RR3.opus
</region>

<region>
hivel=51
key=D5
lovel=26
offset=5651
sample=Tenors_Line_Drum_6_HotRods_Rim_Hit_MP_D4_RR3.opus
</region>

<region>
hivel=25
key=D5
lovel=0
offset=4109
sample=Tenors_Line_Drum_6_HotRods_Rim_Hit_P_D4_RR3.opus
</region>
</group>